<svg viewBox="0 0 32 32" width="32" height="32">
  <circle cx="16" cy="16" r="16" fill="#4c75a3"/>
  <path fill="#fff" d="M23.3 10.8c.2-.7 0-1.2-.9-1.2h-2.1c-.7 0-1 .4-1.2.8 0 0-1.4 3.3-3.3 5.4-.6.6-.8.8-1 .8-.2 0-.3-.2-.3-.8V10.8c0-.7-.2-1-1-1H9.1c-.6 0-.9.3-.9.8 0 .7.9.8 1 2.7v4.2c0 .9-.1 1-.3 1-.6 0-2.1-2.8-3-6.1-.2-.7-.5-1-1.2-1H3.5c-.8 0-.9.4-.9.8 0 .8.9 4.7 4.2 9.9C8 26.6 9.5 27 10.5 27c.8 0 1.2-.3 1.2-1V20c0-1 .2-1.2.8-1.2.5 0 1.4.2 3.5 2.2 2.3 2.1 3.3 3 4.9 3 .8 0 1.1-.3 1.1-1V20c0-1.1.2-1.3.8-1.3.5 0 1.4.2 3.4 2.2 2.3 2.1 3.3 3 4.8 3 .8 0 1.2-.3 1.2-1V10.8z"/>
</svg>